# xmcd
#
# Track frame offsets:
#	150
#	15318
#	38023
#	53525
#	79342
#	98413
#	119371
#	144324
#	162752
#	178421
#	197009
#	218775
#	243610
#	259076
#	278844
#	305826
#
# Disc length: 4414 seconds
#
# Revision: 1
# Processed by: cddbd v1.5.2PL0 Copyright (c) Steve Scherf et al.
# Submitted via: audiograbber 1.83.01
#
DISCID=d8113c10
DTITLE=Blue Thumb - The direct line
DYEAR=2010
DGENRE=
TTITLE0=Everbody has the blues
TTITLE1=Brutal truth
TTITLE2=Lonesome road
TTITLE3=Rio de Janeiro blue
TTITLE4=My biggest fear
TTITLE5=Cold duck
TTITLE6=Respect yourself
TTITLE7=Everbody's talking
TTITLE8=Temptation
TTITLE9=Roll with my baby
TTITLE10=Route 66
TTITLE11=Evil ways
TTITLE12=Blame it on the sun
TTITLE13=Take me to the river
TTITLE14=Steal away
TTITLE15=Isn't she lovely
EXTD=
EXTT0=
EXTT1=
EXTT2=
EXTT3=
EXTT4=
EXTT5=
EXTT6=
EXTT7=
EXTT8=
EXTT9=
EXTT10=
EXTT11=
EXTT12=
EXTT13=
EXTT14=
EXTT15=
PLAYORDER=
